<?xml version="1.0" encoding="utf-8"?>
<!-- Penis icon by Arthur Shlain from Usefulicons.com -->
<svg xmlns="http://www.w3.org/2000/svg" xmlns:xlink="http://www.w3.org/1999/xlink" xml:space="preserve" version="1.1" x="0px" y="0px" viewBox="0 0 100 100" width="400px" height="400px"><path d="M69.499,82.52C67.012,80.526,63.452,84.041,65.963,86.056C68.244,87.886,62.566,89.573,61.688,89.743C59.295,90.205,56.592,90.106,54.25,89.45C49.724,88.183,44.804,83.141,49.297,78.665C51.58,76.391,48.045,72.855,45.761,75.129C44.251,76.634,43.318,78.213,42.858,79.794C40.768,80.718,38.409,80.241,36.272,79.433C32.805,78.122,32.441,76.111,34.445,73.09C36.899,69.391,41.167,66.991,45.325,65.797C47.693,65.117,47.467,62.127,45.834,61.169C42.931,50.497,44.845,39.478,51.075,30.353C54.02,31.786,57.169,32.092,60.415,31.862C59.295,34.672,57.51,37.163,56.547,40.109C55.499,43.315,55.47,46.778,55.358,50.113C55.087,58.19,55.409,65.968,58.666,73.482C59.943,76.426,64.252,73.883,62.983,70.958C59.893,63.831,60.086,55.986,60.422,48.375C60.601,44.328,61.29,41.416,63.129,37.812C64.205,35.703,65.217,33.806,65.788,31.598C71.548,30.389,72.129,23.825,71.91,18.53C71.685,13.115,69.754,6.987,63.92,5.366C57.951,3.707,52.808,7.98,49.094,12.111C44.665,17.037,44.445,21.419,47.307,27.048C39.995,37.206,37.703,50.042,40.892,62.083C34.595,64.745,27.539,70.231,28.121,77.268C28.645,83.618,37.014,86.254,42.937,84.97C44.441,89.845,49.728,93.918,55.277,94.745C59.768,95.414,65.622,94.955,69.221,91.836C72.122,89.324,72.638,85.038,69.499,82.52ZM52.632,15.646C54.528,13.506,56.721,11.082,59.567,10.277C68.044,7.878,68.477,22.832,65.578,26.137C65.398,26.135,65.21,26.152,65.016,26.189C60.76,27.01,55.692,28.02,51.955,25.157C49.919,21.384,49.691,18.965,52.632,15.646Z" stroke="none"></path></svg>